# xmcd
#
# Track frame offsets:
#	150
#	12935
#	26715
#	45287
#	55500
#	68970
#	80395
#	92085
#	104535
#	124147
#	137290
#	150215
#
# Disc length: 2124
#
# Revision: 3
# Processed by: cddbd v1.5.1PL0 Copyright (c) Steve Scherf et al.
# Submitted via: CDex 1.51
# Normalized: r2:TSWAP
#
DISCID=87084a0c
DTITLE=Various Artist - B.B. King And The Best Of The Blues, Volume 1
DYEAR=1995
DGENRE=Blues
TTITLE0=B.B. King - Everyday I Have The Blues
TTITLE1=T-Bone Walker - Call It Stormy Monday But Tuesday Is Just As Bad
TTITLE2=Albert Collins - Trash Talkin'
TTITLE3=Guitar Slim - Bad Luck Is On Me
TTITLE4=Leadbelly - Backwater Blues
TTITLE5=Jimmy Witherspoon - Big Fine Girl
TTITLE6=Lil' Son Jackson - Ticket Agent Blues
TTITLE7=B.B. King - Whole Lotta Love
TTITLE8=James Cotton - She Moves Me
TTITLE9=Johnny "Guitar" Watson - Those Lonely, Lonely Nights
TTITLE10=Amos Milburn - Chicken Shack Boogie
TTITLE11=Roy Brown - Let The Four Winds Blow
EXTD=YEAR: 1995
EXTT0=
EXTT1=
EXTT2=
EXTT3=
EXTT4=
EXTT5=
EXTT6=
EXTT7=
EXTT8=
EXTT9=
EXTT10=
EXTT11=
PLAYORDER=
